[blackdetect @ 000002595c464780] black_start:0 black_end:4.24 black_duration:4.24
frame=  264 fps=0.0 q=-0.0 size=N/A time=00:00:10.56 bitrate=N/A speed=20.6x    frame=  507 fps=493 q=-0.0 size=N/A time=00:00:20.28 bitrate=N/A speed=19.7x    frame=  741 fps=484 q=-0.0 size=N/A time=00:00:29.64 bitrate=N/A speed=19.4x    [blackdetect @ 000002595c464780] black_start:33.8 black_end:37.36 black_duration:3.56
frame= 1019 fps=501 q=-0.0 size=N/A time=00:00:40.76 bitrate=N/A speed=  20x    frame= 1257 fps=496 q=-0.0 size=N/A time=00:00:50.28 bitrate=N/A speed=19.8x    frame= 1495 fps=492 q=-0.0 size=N/A time=00:00:59.80 bitrate=N/A speed=19.7x    frame= 1725 fps=488 q=-0.0 size=N/A time=00:01:09.00 bitrate=N/A speed=19.5x    frame= 1958 fps=484 q=-0.0 size=N/A time=00:01:18.32 bitrate=N/A speed=19.4x    frame= 2191 fps=482 q=-0.0 size=N/A time=00:01:27.64 bitrate=N/A speed=19.3x    frame= 2432 fps=482 q=-0.0 size=N/A time=00:01:37.28 bitrate=N/A speed=19.3x    frame= 2677 fps=482 q=-0.0 size=N/A time=00:01:47.08 bitrate=N/A speed=19.3x    frame= 2871 fps=474 q=-0.0 size=N/A time=00:01:54.84 bitrate=N/A speed=  19x    frame= 3089 fps=470 q=-0.0 size=N/A time=00:02:03.56 bitrate=N/A speed=18.8x    frame= 3333 fps=470 q=-0.0 size=N/A time=00:02:13.32 bitrate=N/A speed=18.8x    frame= 3569 fps=470 q=-0.0 size=N/A time=00:02:22.76 bitrate=N/A speed=18.8x    frame= 3813 fps=470 q=-0.0 size=N/A time=00:02:32.52 bitrate=N/A speed=18.8x    frame= 4058 fps=471 q=-0.0 size=N/A time=00:02:42.32 bitrate=N/A speed=18.9x    frame= 4309 fps=472 q=-0.0 size=N/A time=00:02:52.36 bitrate=N/A speed=18.9x    frame= 4552 fps=473 q=-0.0 size=N/A time=00:03:02.08 bitrate=N/A speed=18.9x    frame= 4796 fps=473 q=-0.0 size=N/A time=00:03:11.84 bitrate=N/A speed=18.9x    frame= 5019 fps=471 q=-0.0 size=N/A time=00:03:20.76 bitrate=N/A speed=18.9x    [blackdetect @ 000002595c464780] black_start:201.6 black_end:205.48 black_duration:3.88
frame= 5284 fps=474 q=-0.0 size=N/A time=00:03:31.36 bitrate=N/A speed=  19x    frame= 5499 fps=472 q=-0.0 size=N/A time=00:03:39.96 bitrate=N/A speed=18.9x    frame= 5722 fps=471 q=-0.0 size=N/A time=00:03:48.88 bitrate=N/A speed=18.8x    frame= 5952 fps=470 q=-0.0 size=N/A time=00:03:58.08 bitrate=N/A speed=18.8x    frame= 6174 fps=468 q=-0.0 size=N/A time=00:04:06.96 bitrate=N/A speed=18.7x    frame= 6401 fps=467 q=-0.0 size=N/A time=00:04:16.04 bitrate=N/A speed=18.7x    frame= 6634 fps=467 q=-0.0 size=N/A time=00:04:25.36 bitrate=N/A speed=18.7x    frame= 6908 fps=469 q=-0.0 size=N/A time=00:04:36.32 bitrate=N/A speed=18.8x    [blackdetect @ 000002595c464780] black_start:270.6 black_end:278.28 black_duration:7.68
